<?xml version="1.0" encoding="UTF-8" standalone="no"?>
<!-- Created with Inkscape (http://www.inkscape.org/) -->

<svg
   width="256"
   height="256"
   viewBox="0 0 67.733332 67.733333"
   version="1.1"
   id="svg3909"
   inkscape:version="1.2.1 (9c6d41e410, 2022-07-14)"
   sodipodi:docname="icon_code.svg"
   xmlns:inkscape="http://www.inkscape.org/namespaces/inkscape"
   xmlns:sodipodi="http://sodipodi.sourceforge.net/DTD/sodipodi-0.dtd"
   xmlns="http://www.w3.org/2000/svg"
   xmlns:svg="http://www.w3.org/2000/svg">
  <sodipodi:namedview
     id="namedview3911"
     pagecolor="#ffffff"
     bordercolor="#111111"
     borderopacity="1"
     inkscape:showpageshadow="0"
     inkscape:pageopacity="0"
     inkscape:pagecheckerboard="1"
     inkscape:deskcolor="#d1d1d1"
     inkscape:document-units="mm"
     showgrid="false"
     inkscape:zoom="1.4912879"
     inkscape:cx="25.14605"
     inkscape:cy="108.63094"
     inkscape:window-width="1920"
     inkscape:window-height="1017"
     inkscape:window-x="4472"
     inkscape:window-y="-8"
     inkscape:window-maximized="1"
     inkscape:current-layer="layer1" />
  <defs
     id="defs3906">
    <inkscape:path-effect
       effect="spiro"
       id="path-effect398"
       is_visible="true"
       lpeversion="1" />
  </defs>
  <g
     inkscape:label="Layer 1"
     inkscape:groupmode="layer"
     id="layer1">
    <path
       id="path12936-7-9-7"
       style="fill:#ffff00;fill-opacity:1;fill-rule:nonzero;stroke:#000000;stroke-width:2.34436;stroke-dasharray:none;stroke-opacity:1"
       d="M 35.375159,1.1732758 A 32.352193,32.646302 0 0 0 26.118816,2.6179666 32.352193,32.646302 0 0 0 25.825637,2.7210014 14.876305,14.876305 0 0 1 29.469777,12.473449 14.876305,14.876305 0 0 1 14.593367,27.349856 14.876305,14.876305 0 0 1 4.8845353,23.731155 32.352193,32.646302 0 0 0 3.30779,34.974325 32.352193,32.646302 0 0 0 28.330379,65.620623 32.352193,32.646302 0 0 0 64.166667,49.218352 L 35.639861,33.818577 63.015151,16.421065 A 32.352193,32.646302 0 0 0 35.375159,1.1732758 Z" />
    <path
       id="path9439-2-3-5-60-8-1-4"
       style="fill:#9207fe;fill-opacity:1;stroke:#000000;stroke-width:1.29054;stroke-dasharray:none;stroke-opacity:1"
       d="m 14.593419,0.64705987 c -0.312617,6.0953e-4 -0.625104,0.0135973 -0.9367,0.0390337 L 12.674533,3.4482465 c -1.104928,0.2355382 -2.15724,0.6718829 -3.1046119,1.287384 L 6.927033,3.479321 C 6.4499127,3.8860447 6.0058797,4.330079 5.5991419,4.8072156 L 6.8554584,7.45031 C 6.2400711,8.3977143 5.8037908,9.4500289 5.5683382,10.554951 l -2.762173,0.982183 c -0.025413,0.311589 -0.038319,0.624069 -0.03901,0.936702 6.26e-4,0.312621 0.013902,0.625113 0.03901,0.936702 l 2.762173,0.982441 c 0.2355124,1.104747 0.6717833,2.156885 1.2871202,3.104137 l -1.2563165,2.643106 c 0.4066675,0.477114 0.8505915,0.921136 1.3276332,1.327883 l 2.643146,-1.256309 c 0.9473719,0.615501 1.9996839,1.051857 3.1046119,1.287384 l 0.982435,2.762399 c 0.311515,0.02544 0.623914,0.03845 0.936451,0.03903 0.312628,-6.22e-4 0.625117,-0.0136 0.936701,-0.03903 l 0.982445,-2.762399 c 1.104927,-0.235527 2.157239,-0.671883 3.104621,-1.287384 l 2.643115,1.256309 c 0.477042,-0.406735 0.920995,-0.850769 1.327643,-1.327883 l -1.256316,-2.643106 c 0.615347,-0.947252 1.051607,-1.99939 1.28713,-3.104137 l 2.762153,-0.982441 c 0.02541,-0.311589 0.03832,-0.624081 0.03901,-0.936702 -6.9e-5,-0.312445 -0.0128,-0.624749 -0.03732,-0.93621 L 23.622929,10.55644 C 23.387625,9.4491381 22.950639,8.3945612 22.333814,7.44534 L 23.591122,4.8002528 C 23.185438,4.3244759 22.742654,3.8816139 22.266954,3.4758397 L 19.621863,4.7331454 C 18.672713,4.1163316 17.618237,3.6793656 16.511027,3.4440266 L 15.529575,0.6843587 C 15.218129,0.65950844 14.905809,0.64708331 14.593381,0.6469661 Z M 14.390934,9.0417931 c 3.28205,-4.68e-5 3.472375,-0.052631 3.472275,3.2295369 -4e-5,3.282039 -0.02839,3.958271 -3.310292,3.958224 -3.281852,-9.4e-5 -3.309975,-0.311812 -3.310026,-3.593758 -8.9e-5,-3.2820384 -0.133937,-3.5939208 3.148043,-3.5940029 z"
       sodipodi:nodetypes="scccccccccccccccccccccccccccccccccccsssssss" />
    <path
       d="m 26.888201,49.612336 h 3.946152 c 0.585193,3.466496 3.600482,6.118066 7.231249,6.118066 4.048322,0 7.341677,-3.293355 7.341677,-7.34168 0,-4.048323 -3.293355,-7.341678 -7.341677,-7.341678 -3.630767,0 -6.64575,2.65157 -7.231249,6.118066 h -3.946152 c -1.926273,0 -3.493416,-1.567755 -3.493416,-3.495251 V 25.140073 h -2.447226 v 18.529786 c 0,3.27653 2.664723,5.942477 5.940642,5.942477 z M 38.065602,43.49427 c 2.698676,0 4.894453,2.195774 4.894453,4.894452 0,2.69868 -2.195777,4.894454 -4.894453,4.894454 -2.698679,0 -4.894454,-2.195774 -4.894454,-4.894454 0,-2.698678 2.195775,-4.894452 4.894454,-4.894452 z"
       id="path502"
       style="fill:#000000;fill-opacity:1;stroke:none;stroke-width:0;stroke-dasharray:none" />
    <path
       d="M 18.794638,40.509357 H 16.186 c -0.386846,2.300397 -2.38013,4.060001 -4.78028,4.060001 -2.6761785,0 -4.8532797,-2.185499 -4.8532797,-4.872002 0,-2.686502 2.1771012,-4.872001 4.8532797,-4.872001 2.40015,0 4.393231,1.759606 4.78028,4.060002 h 2.608638 c 1.273381,0 2.309353,-1.040376 2.309353,-2.319479 V 24.269352 h 1.617761 v 12.296526 c 0,2.174333 -1.761538,3.943479 -3.927114,3.943479 z M 11.40572,36.449356 c -1.7839832,0 -3.2355208,1.457135 -3.2355208,3.248 0,1.790868 1.4515376,3.248002 3.2355208,3.248002 1.783986,0 3.235521,-1.457134 3.235521,-3.248002 0,-1.790865 -1.451535,-3.248 -3.235521,-3.248 z"
       id="path502-9"
       style="fill:#000000;fill-opacity:1;stroke:none;stroke-width:0;stroke-dasharray:none" />
  </g>
</svg>
